<?xml version="1.0" encoding="utf-8"?>
<!-- Generator: Adobe Illustrator 26.0.0, SVG Export Plug-In . SVG Version: 6.00 Build 0)  -->
<svg version="1.1" id="Capa_1" xmlns="http://www.w3.org/2000/svg" xmlns:xlink="http://www.w3.org/1999/xlink" x="0px" y="0px"
	 viewBox="0 0 800 800" style="enable-background:new 0 0 800 800;" xml:space="preserve">
<style type="text/css">
	.st0{fill:#FFFFFF;}
</style>
<g>
	<path class="st0" d="M660.4,111.4H139.6C62.6,111.4,0,174.1,0,251.1v297.8c0,77,62.6,139.7,139.6,139.7h520.7
		c77,0,139.6-62.7,139.6-139.7V251.1C800,174.1,737.4,111.4,660.4,111.4z M742.8,548.9c0,45.5-37,82.4-82.4,82.4H139.6
		c-45.4,0-82.4-37-82.4-82.4V251.1c0-45.5,37-82.4,82.4-82.4h520.7c45.4,0,82.4,37,82.4,82.4L742.8,548.9L742.8,548.9z"/>
	<path class="st0" d="M553.6,376.1L341.5,236.3c-8.8-5.8-20-6.3-29.3-1.3c-9.3,5-15,14.7-15,25.2v279.7c0,10.5,5.8,20.2,15,25.2
		c4.2,2.3,8.9,3.4,13.6,3.4c5.5,0,11-1.6,15.8-4.7l212.1-139.9c8-5.3,12.9-14.3,12.9-23.9C566.5,390.4,561.6,381.4,553.6,376.1z
		 M354.3,486.7V313.3L485.9,400L354.3,486.7z"/>
</g>
</svg>
